PathFileType	4	(X/Y/Z)	C:\Users\Public\Documents\Vicon Data\AADs Machine\Fixing_spring_distance_56\90_lb_Spring\Brian_90_01.trc
DataRate	CameraRate	NumFrames	NumMarkers	Units	OrigDataRate	OrigDataStartFrame	OrigNumFrames
100.0	100.0	30	8	mm	100.0	489	1302	
Frame#	Time	SpringTop			MMAL			LMAL			Shank			Heel			Foot			Toe			MP5			
		X1	Y1	Z1	X2	Y2	Z2	X3	Y3	Z3	X4	Y4	Z4	X5	Y5	Z5	X6	Y6	Z6	X7	Y7	Z7	X8	Y8	Z8	
489	4.88	-342.99625	161.60617	-612.72424	-288.00418	103.57215	-674.06158	-270.32782	111.26589	-550.38983	-173.88763	253.83412	-620.48468	-355.18628	88.57653	-607.83551	-178.10361	57.012699	-613.66602	-104.29716	37.333515	-629.862	-164.43449	38.95816	-561.8233
490	4.89	-342.94318	161.63718	-612.78168	-287.99426	103.5518	-674.09686	-270.35269	111.2664	-550.41138	-173.76814	253.71117	-620.57172	-355.15543	88.599617	-607.80145	-178.13779	57.02692	-613.65967	-104.32348	37.346405	-629.84045	-164.43695	38.964699	-561.82892
491	4.9	-342.87787	161.75389	-612.8125	-287.99939	103.59551	-674.12091	-270.34842	111.28799	-550.43536	-173.63365	253.63249	-620.6261	-355.24716	88.707474	-607.90564	-178.12691	57.029858	-613.64923	-104.56879	37.347214	-629.82629	-164.43712	39.000999	-561.81488
492	4.91	-342.87851	161.8313	-612.86993	-287.99603	103.53065	-674.16833	-270.33182	111.27465	-550.45392	-173.46272	253.46809	-620.7298	-355.16208	88.62442	-607.84869	-178.13365	57.001026	-613.66156	-104.57277	37.333435	-629.83832	-164.41313	38.982025	-561.8421
493	4.92	-342.74045	161.86717	-612.88995	-288.00919	103.49993	-674.16211	-270.31598	111.29668	-550.46014	-173.28352	253.36028	-620.78296	-355.14194	88.632263	-607.90393	-178.12096	57.010571	-613.68048	-104.55202	37.321396	-629.85455	-164.42343	38.972046	-561.85052
494	4.93	-342.67444	162.0071	-612.95605	-287.97601	103.54305	-674.20319	-270.32535	111.33525	-550.48206	-173.08366	253.28299	-620.84607	-355.20175	88.765961	-607.93652	-178.1113	57.019032	-613.66718	-104.55745	37.312134	-629.85455	-164.41943	38.983887	-561.84271
495	4.94	-342.52261	162.02681	-613.00708	-287.99646	103.64896	-674.32568	-270.28278	111.37849	-550.50299	-172.79945	253.19809	-620.93585	-355.14523	88.852448	-608.00439	-178.1201	57.006554	-613.69031	-104.53522	37.321404	-629.87317	-164.41597	38.998173	-561.85815
496	4.95	-342.44879	162.07738	-613.00073	-287.98599	103.62383	-674.36102	-270.23157	111.36423	-550.54889	-172.48381	253.0919	-621.0025	-355.16138	88.850899	-607.99768	-178.11806	56.999443	-613.66943	-104.54521	37.270256	-629.86523	-164.40894	39.003651	-561.85016
497	4.96	-342.42511	162.17671	-613.05743	-287.96704	103.63111	-674.37323	-270.2659	111.39344	-550.56244	-172.23808	253.01909	-621.02972	-355.15591	88.870163	-608.00299	-178.12384	56.981773	-613.67218	-104.54143	37.278263	-629.84949	-164.42212	38.997093	-561.84625
498	4.97	-342.388	162.25586	-613.10645	-287.94675	103.63352	-674.38922	-270.24463	111.40818	-550.56842	-171.90988	252.90892	-621.0686	-355.12073	88.898201	-608.03418	-178.10481	56.984123	-613.69135	-104.5364	37.287117	-629.87	-164.40913	39.014584	-561.85785
499	4.98	-342.2851	162.2785	-613.10468	-287.97995	103.5966	-674.43353	-270.2338	111.36073	-550.57996	-171.73486	252.71454	-621.03076	-355.12857	88.836021	-608.05707	-178.10751	56.987015	-613.70459	-104.54433	37.25127	-629.8941	-164.39796	38.97813	-561.87701
500	4.99	-342.23312	162.39258	-613.1145	-287.96982	103.64661	-674.45721	-270.25266	111.39389	-550.57477	-171.52094	252.61772	-621.01794	-355.13528	88.886284	-608.03156	-178.10916	56.981804	-613.68158	-104.56493	37.267925	-629.87115	-164.40483	38.99448	-561.86218
501	5	-342.13464	162.50044	-613.12061	-287.94406	103.66415	-674.45282	-270.26108	111.41389	-550.56207	-171.35915	252.4879	-621.01367	-355.13168	88.935806	-608.04761	-178.14273	57.015251	-613.65985	-104.57206	37.278263	-629.87585	-164.41359	39.01524	-561.85376
502	5.01	-341.99982	162.55997	-613.10175	-287.91821	103.68771	-674.44739	-270.19427	111.41618	-550.57574	-171.12012	252.36127	-621.01837	-354.99936	88.952705	-607.90863	-178.09384	56.978622	-613.64111	-104.5679	37.233902	-629.84204	-164.38785	38.976139	-561.85455
503	5.02	-341.89395	162.64687	-613.11438	-287.87308	103.75269	-674.4549	-270.14163	111.4836	-550.56439	-170.96977	252.24879	-621.03394	-354.96298	89.056961	-607.87329	-178.08661	56.966801	-613.66486	-104.55695	37.229939	-629.84943	-164.35374	38.981903	-561.87793
504	5.03	-341.75186	162.82715	-613.09216	-287.80835	103.86585	-674.46588	-270.12701	111.52264	-550.54272	-170.7962	252.21518	-621.00458	-354.95175	89.179199	-607.80762	-178.08888	56.956234	-613.62805	-104.57231	37.208557	-629.86163	-164.3558	38.982853	-561.85022
505	5.04	-341.64963	162.93683	-613.04572	-287.77002	103.89566	-674.45709	-270.06543	111.5742	-550.53516	-170.94672	251.93214	-621.00671	-354.84357	89.272079	-607.83972	-178.05069	56.953308	-613.59808	-104.54501	37.199959	-629.84161	-164.31711	38.973122	-561.85663
506	5.05	-341.5499	162.99467	-613.01343	-287.75613	103.90108	-674.41357	-270.05075	111.56286	-550.50763	-170.83073	251.79822	-620.92603	-354.52927	89.035103	-607.02258	-178.0406	56.935692	-613.58514	-104.51569	37.159283	-629.82141	-164.325	38.954906	-561.84027
507	5.06	-341.45496	163.07645	-613.01306	-287.77213	103.94331	-674.40234	-270.07693	111.52416	-550.50543	-170.67647	251.69414	-620.86884	-354.49747	89.047653	-606.98798	-178.08322	56.921566	-613.54803	-104.53006	37.164036	-629.84552	-164.33267	38.944347	-561.85309
508	5.07	-341.42249	163.15239	-613.00531	-287.76831	103.94832	-674.41687	-270.1026	111.54836	-550.44965	-170.24559	251.73027	-620.76624	-354.73831	89.25132	-607.61908	-178.0589	56.914314	-613.54767	-104.50616	37.208733	-629.82117	-164.32579	38.950806	-561.83972
509	5.08	-341.33975	163.1974	-612.94507	-287.73007	103.92538	-674.38641	-270.10873	111.5117	-550.43079	-170.33539	251.46416	-620.72754	-354.43503	89.039185	-606.99316	-178.05156	56.896687	-613.50378	-104.50468	37.17255	-629.80023	-164.32884	38.93491	-561.82007
510	5.09	-341.30579	163.25963	-612.9574	-287.72153	103.97169	-674.35675	-270.12305	111.50693	-550.41913	-169.8297	251.51443	-620.59888	-354.4603	89.08033	-606.96436	-178.04591	56.867489	-613.4834	-104.50035	37.145668	-629.79938	-164.33771	38.933167	-561.82794
511	5.1	-341.20453	163.39175	-612.92218	-287.69696	104.04167	-674.3559	-270.10428	111.52336	-550.38074	-169.56844	251.4635	-620.51611	-354.41263	89.150063	-606.97565	-178.06195	56.890194	-613.46167	-104.5246	37.189507	-629.8053	-164.32108	38.953461	-561.80542
512	5.11	-341.11618	163.39795	-612.9325	-287.68719	104.01061	-674.35052	-270.1055	111.50593	-550.40039	-169.38858	251.30338	-620.44904	-354.3674	89.145226	-606.97827	-178.02702	56.863808	-613.44897	-104.50642	37.176594	-629.78821	-164.3031	38.904495	-561.82605
513	5.12	-341.12692	163.47977	-612.95184	-287.65942	104.02234	-674.33508	-270.11029	111.53181	-550.32635	-169.22234	251.23	-620.36792	-354.39969	89.143448	-606.96521	-178.06856	56.842888	-613.42712	-104.48425	37.159687	-629.78845	-164.31439	38.921173	-561.79877
514	5.13	-340.953	163.56483	-612.96582	-287.66238	104.0631	-674.36481	-270.09937	111.51398	-550.37659	-169.0377	251.16924	-620.33331	-354.37711	89.177155	-606.9754	-178.06215	56.869286	-613.4472	-104.50429	37.158947	-629.78406	-164.3152	38.915474	-561.80957
515	5.14	-340.87915	163.66051	-612.96729	-287.6402	104.08883	-674.35095	-270.05649	111.57449	-550.38422	-168.8304	251.14223	-620.28241	-354.33392	89.307854	-606.96497	-178.05597	56.870193	-613.40869	-104.51876	37.157063	-629.78162	-164.29787	38.935055	-561.80365
516	5.15	-340.78122	163.68311	-612.94928	-287.57718	104.09322	-674.32019	-270.01816	111.57262	-550.31549	-168.65138	251.05295	-620.24316	-354.27176	89.326347	-606.93414	-178.00302	56.856197	-613.42462	-104.47312	37.116001	-629.78632	-164.30038	38.892551	-561.80066
517	5.16	-340.70605	163.75623	-612.95148	-287.57123	104.16962	-674.36322	-269.98395	111.61719	-550.3349	-168.48309	251.00133	-620.21704	-354.51001	89.57338	-607.53882	-178.01863	56.841621	-613.4281	-104.48366	37.108364	-629.79553	-164.28195	38.899311	-561.79706
518	5.17	-340.64148	163.86382	-612.95612	-287.5477	104.1972	-674.37274	-269.98441	111.61528	-550.35602	-168.32262	250.99471	-620.16364	-354.24728	89.451057	-606.95337	-178.05161	56.860893	-613.43066	-104.47559	37.132172	-629.79291	-164.27411	38.916039	-561.80328
